<svg width="142" height="47" viewBox="0 0 142 47" fill="none" xmlns="http://www.w3.org/2000/svg">
<path d="M138.892 9.0074L133.892 22.0074L128.392 9.0074C128.392 9.0074 127.51 5.74904 128.392 4.0074C129.499 1.82514 131.448 0.90694 133.892 1.0074C136.168 1.1009 137.857 1.97902 138.892 4.0074C139.78 5.74672 138.892 9.0074 138.892 9.0074Z" stroke="white"/>
<path d="M11.1434 27.54C11.3434 27.18 11.6301 27 12.0034 27H15.6634C15.8101 27 15.9368 27.0533 16.0434 27.16C16.1501 27.2667 16.2034 27.3933 16.2034 27.54V40.46C16.2034 40.6067 16.1501 40.7333 16.0434 40.84C15.9368 40.9467 15.8101 41 15.6634 41H12.0434C11.8968 41 11.7701 40.9467 11.6634 40.84C11.5568 40.7333 11.5034 40.6067 11.5034 40.46V34.26L10.0434 37.14C10.0034 37.2333 9.9101 37.34 9.76344 37.46C9.61677 37.58 9.4301 37.64 9.20344 37.64H7.84344C7.61677 37.64 7.4301 37.58 7.28344 37.46C7.13677 37.34 7.04344 37.2333 7.00344 37.14L5.54344 34.26V40.46C5.54344 40.6067 5.4901 40.7333 5.38344 40.84C5.27677 40.9467 5.1501 41 5.00344 41H1.38344C1.23677 41 1.1101 40.9467 1.00344 40.84C0.896771 40.7333 0.843438 40.6067 0.843438 40.46V27.54C0.843438 27.3933 0.896771 27.2667 1.00344 27.16C1.1101 27.0533 1.23677 27 1.38344 27H5.04344C5.41677 27 5.70344 27.18 5.90344 27.54L8.52344 32.34L11.1434 27.54ZM40.9556 35.22C40.9556 37.26 40.2756 38.7667 38.9156 39.74C37.569 40.7133 35.769 41.2 33.5156 41.2C31.2623 41.2 29.4556 40.7133 28.0956 39.74C26.749 38.7667 26.0756 37.2467 26.0756 35.18V32.82C26.0756 31.46 26.3956 30.3333 27.0356 29.44C27.689 28.5333 28.5756 27.8667 29.6956 27.44C30.8156 27.0133 32.089 26.8 33.5156 26.8C34.9423 26.8 36.209 27.0133 37.3156 27.44C38.4356 27.8667 39.3223 28.5267 39.9756 29.42C40.629 30.3133 40.9556 31.4333 40.9556 32.78V35.22ZM31.4756 35.6C31.4756 36.1467 31.6556 36.5667 32.0156 36.86C32.389 37.1533 32.889 37.3 33.5156 37.3C34.1423 37.3 34.6356 37.1533 34.9956 36.86C35.369 36.5533 35.5556 36.1267 35.5556 35.58V32.42C35.5556 31.8733 35.369 31.4533 34.9956 31.16C34.6356 30.8533 34.1423 30.7 33.5156 30.7C32.889 30.7 32.389 30.8467 32.0156 31.14C31.6556 31.4333 31.4756 31.8533 31.4756 32.4V35.6ZM66.4478 40.38C66.4745 40.4333 66.4878 40.4933 66.4878 40.56C66.4878 40.68 66.4411 40.7867 66.3478 40.88C66.2678 40.96 66.1678 41 66.0478 41H61.5078C61.3211 41 61.1478 40.9533 60.9878 40.86C60.8411 40.7667 60.7345 40.6467 60.6678 40.5L58.9078 36.54H57.2278V40.46C57.2278 40.6067 57.1745 40.7333 57.0678 40.84C56.9611 40.9467 56.8345 41 56.6878 41H52.3678C52.2211 41 52.0945 40.9467 51.9878 40.84C51.8811 40.7333 51.8278 40.6067 51.8278 40.46V27.54C51.8278 27.3933 51.8811 27.2667 51.9878 27.16C52.0945 27.0533 52.2211 27 52.3678 27H60.1478C61.3478 27 62.3945 27.1933 63.2878 27.58C64.1945 27.9667 64.8878 28.5267 65.3678 29.26C65.8478 29.9933 66.0878 30.8533 66.0878 31.84C66.0878 33.6533 65.3878 34.9667 63.9878 35.78L66.4478 40.38ZM59.7278 32.84C60.0211 32.84 60.2478 32.7467 60.4078 32.56C60.5678 32.36 60.6478 32.1133 60.6478 31.82C60.6478 31.5267 60.5678 31.2733 60.4078 31.06C60.2611 30.8333 60.0345 30.72 59.7278 30.72H57.2278V32.84H59.7278ZM90.7 32.56C90.8467 32.56 90.9733 32.6133 91.08 32.72C91.1867 32.8267 91.24 32.9533 91.24 33.1V35.22C91.24 37.2467 90.5467 38.7533 89.16 39.74C87.7867 40.7133 85.9667 41.2 83.7 41.2C81.4333 41.2 79.6067 40.7133 78.22 39.74C76.8467 38.7533 76.16 37.2333 76.16 35.18V32.82C76.16 31.46 76.4933 30.3333 77.16 29.44C77.8267 28.5333 78.7267 27.8667 79.86 27.44C80.9933 27.0133 82.2733 26.8 83.7 26.8C85.4067 26.8 86.8133 27.08 87.92 27.64C89.0267 28.2 89.8267 28.8333 90.32 29.54C90.8267 30.2467 91.08 30.82 91.08 31.26C91.08 31.38 91.0333 31.4867 90.94 31.58C90.86 31.66 90.76 31.7 90.64 31.7H86.12C85.8533 31.7 85.66 31.6267 85.54 31.48C85.1267 30.96 84.5133 30.7 83.7 30.7C83.0867 30.7 82.5733 30.84 82.16 31.12C81.76 31.4 81.56 31.76 81.56 32.2V35.6C81.56 36.1333 81.76 36.5533 82.16 36.86C82.56 37.1533 83.0733 37.3 83.7 37.3C84.5267 37.3 85.1333 37.16 85.52 36.88C85.92 36.5867 86.1267 36.2467 86.14 35.86H84.9C84.7533 35.86 84.6267 35.8067 84.52 35.7C84.4133 35.5933 84.36 35.4667 84.36 35.32V33.1C84.36 32.9533 84.4133 32.8267 84.52 32.72C84.6267 32.6133 84.7533 32.56 84.9 32.56H90.7ZM105.612 40.32C105.439 40.7733 105.139 41 104.712 41H100.932C100.812 41 100.706 40.96 100.612 40.88C100.532 40.7867 100.492 40.68 100.492 40.56L100.512 40.44L104.872 27.66C104.926 27.4867 105.026 27.3333 105.172 27.2C105.319 27.0667 105.519 27 105.772 27H111.332C111.586 27 111.786 27.0667 111.932 27.2C112.079 27.3333 112.179 27.4867 112.232 27.66L116.592 40.44L116.612 40.56C116.612 40.68 116.566 40.7867 116.472 40.88C116.392 40.96 116.292 41 116.172 41H112.392C111.966 41 111.666 40.7733 111.492 40.32L110.992 38.92H106.112L105.612 40.32ZM108.552 30.86L107.132 35.02H109.972L108.552 30.86ZM139.744 27C139.891 27 140.018 27.0533 140.124 27.16C140.231 27.2667 140.284 27.3933 140.284 27.54V40.46C140.284 40.6067 140.231 40.7333 140.124 40.84C140.018 40.9467 139.891 41 139.744 41H136.524C136.204 41 135.938 40.86 135.724 40.58L131.364 35.02V40.46C131.364 40.6067 131.311 40.7333 131.204 40.84C131.098 40.9467 130.971 41 130.824 41H127.104C126.958 41 126.831 40.9467 126.724 40.84C126.618 40.7333 126.564 40.6067 126.564 40.46V27.54C126.564 27.3933 126.618 27.2667 126.724 27.16C126.831 27.0533 126.958 27 127.104 27H130.344C130.664 27 130.924 27.1333 131.124 27.4L135.484 33.42V27.54C135.484 27.3933 135.538 27.2667 135.644 27.16C135.751 27.0533 135.878 27 136.024 27H139.744Z" fill="white"/>
<circle cx="134" cy="8" r="1.5" stroke="white"/>
</svg>
