<svg width="48" height="48" viewBox="0 0 48 48" fill="none" xmlns="http://www.w3.org/2000/svg">
<path fill-rule="evenodd" clip-rule="evenodd" d="M22.863 31.632C20.673 29.433 18.57 27.33 16.368 25.14C13.569 22.164 13.053 19.404 14.355 18.438L17.022 16.899C17.8224 16.436 18.4063 15.6741 18.6454 14.7809C18.8845 13.8876 18.7592 12.9359 18.297 12.135L14.295 5.196C14.0657 4.79925 13.7605 4.45154 13.3969 4.17275C13.0332 3.89395 12.6182 3.68951 12.1756 3.57111C11.7329 3.45272 11.2712 3.42268 10.817 3.48271C10.3627 3.54274 9.92469 3.69167 9.52797 3.921L6.86097 5.46C-1.79103 10.455 8.25297 26.499 12.453 30.699L17.301 35.547C21.501 39.747 37.545 49.791 42.54 41.139L44.079 38.469C44.5412 37.6681 44.6665 36.7164 44.4274 35.8231C44.1883 34.9298 43.6044 34.168 42.804 33.705L35.868 29.7C35.067 29.2378 34.1154 29.1125 33.2221 29.3516C32.3288 29.5906 31.567 30.1745 31.104 30.975L29.562 33.645C28.599 34.944 25.842 34.425 22.863 31.629V31.632Z" fill="white"/>
</svg>
